<?xml version="1.0" encoding="UTF-8" standalone="no"?>
<!-- Created with Inkscape (http://www.inkscape.org/) -->

<svg
   width="151mm"
   height="151.00006mm"
   viewBox="0 0 151 151.00006"
   version="1.1"
   id="svg5"
   inkscape:version="1.2.1 (9c6d41e410, 2022-07-14, custom)"
   sodipodi:docname="gyan-ganga.svg"
   xmlns:inkscape="http://www.inkscape.org/namespaces/inkscape"
   xmlns:sodipodi="http://sodipodi.sourceforge.net/DTD/sodipodi-0.dtd"
   xmlns="http://www.w3.org/2000/svg"
   xmlns:svg="http://www.w3.org/2000/svg">
  <sodipodi:namedview
     id="namedview7"
     pagecolor="#ffffff"
     bordercolor="#666666"
     borderopacity="1.0"
     inkscape:pageshadow="2"
     inkscape:pageopacity="0.0"
     inkscape:pagecheckerboard="0"
     inkscape:document-units="mm"
     showgrid="false"
     showborder="false"
     inkscape:snap-global="true"
     inkscape:zoom="0.23118364"
     inkscape:cx="1585.3198"
     inkscape:cy="3953.5669"
     inkscape:window-width="1920"
     inkscape:window-height="1007"
     inkscape:window-x="0"
     inkscape:window-y="0"
     inkscape:window-maximized="1"
     inkscape:current-layer="svg5"
     inkscape:showpageshadow="2"
     inkscape:deskcolor="#d1d1d1" />
  <defs
     id="defs2" />
  <g
     id="g3259"
     transform="translate(-1.5497207e-6,-760.1027)">
    <rect
       style="fill:#ffffff;fill-opacity:1;stroke:#b92d2d;stroke-width:1;stroke-miterlimit:4;stroke-dasharray:none;stroke-opacity:1"
       id="rect5215"
       width="150"
       height="150"
       x="0.50000155"
       y="760.60272" />
    <path
       id="path5217"
       d="m 21.90702,896.27797 v 0 q -0.8525,0 -0.8525,-0.2919 v 0 q 0,-0.3351 1.0515,-0.5241 1.0548,-0.1924 2.1361,-0.1924 1.0847,0 1.5723,0.06 0.4909,0.063 0.6336,0.1692 0.1459,0.1061 0.1459,0.3051 v 0 q 0,2.7465 -1.3135,4.0468 -1.3103,1.2969 -3.7781,1.2969 -2.4646,0 -3.861,-1.2074 -1.3965,-1.204 -1.3965,-3.3269 v 0 q 0,-2.9323 1.7547,-4.7566 1.7547,-1.8244 4.3652,-1.8244 v 0 q 1.1477,0 2.1693,0.4743 1.0217,0.4744 1.2505,1.2207 v 0 q -0.2122,0.1858 -0.4113,0.1858 -0.199,0 -0.4809,-0.093 -0.282,-0.093 -0.5739,-0.3516 -0.2886,-0.2588 -0.8823,-0.5274 -0.5971,-0.2654 -1.2538,-0.2654 v 0 q -2.03,0 -3.5194,1.7315 -1.486,1.7315 -1.486,4.0832 v 0 q 0,1.8642 1.3666,2.9157 1.3633,1.0548 3.1976,1.0548 v 0 q 2.0897,0 2.9588,-1.297 v 0 q 0.8259,-1.1908 0.8259,-3.0383 v 0 q -0.1227,-0.1062 -0.3217,-0.1062 -0.1957,0 -0.471,0.013 v 0 q -0.7033,0.03 -1.6187,0.1393 -0.9155,0.1062 -1.2074,0.1062 z m 11.9412,-0.2289 v 0 q 0.1526,-0.3981 0.481,-1.2539 0.3284,-0.8524 0.5108,-1.3035 0.1824,-0.4512 0.481,-1.1212 0.2985,-0.6733 0.4942,-0.9719 0.199,-0.2952 0.4743,-0.6335 v 0 q 0.4744,-0.5805 1.1908,-0.5805 v 0 q 0.136,0 0.3981,0.08 v 0 q -0.5805,0.335 -1.4363,2.1362 -0.8558,1.8011 -1.5656,3.7382 -0.7099,1.9405 -1.496,3.5194 -0.7861,1.5789 -1.2737,1.5789 v 0 q -0.199,0 -0.4279,-0.09 v 0 q 0.2919,-0.6269 0.816,-1.9936 0.5274,-1.3666 0.9088,-2.1129 v 0 q -2.1195,-2.2755 -3.2573,-3.9837 -1.1377,-1.7116 -1.1377,-2.6105 v 0 q 0,-0.1526 0.1824,-0.2687 0.1825,-0.1128 0.4113,-0.1128 0.2289,0 0.3981,0.2588 0.1691,0.2587 0.4046,0.8027 0.2356,0.5406 0.5805,1.2206 0.3417,0.6767 1.0913,1.6851 0.7464,1.0083 1.7713,2.0167 z m 15.2052,4.8063 v 0 q -0.2455,0.3384 -0.7032,0.3384 v 0 q -0.1227,0 -0.2421,-0.033 v 0 q -0.3384,-0.7629 -0.4976,-2.1594 -0.1592,-1.3965 -0.2355,-1.8376 v 0 q -1.6651,-0.063 -3.3303,-0.063 -1.6618,0 -2.9753,0.1393 v 0 q -0.136,0.6236 -0.2986,1.8675 -0.1592,1.2472 -0.2355,1.6717 v 0 q -0.5506,0.4445 -0.9918,0.1228 v 0 q 0.046,-0.3649 0.136,-1.161 0.093,-0.7928 0.1626,-1.35 0.066,-0.5573 0.2056,-1.4131 0.136,-0.8524 0.2654,-1.4727 0.1293,-0.617 0.3582,-1.3865 0.2289,-0.7729 0.4743,-1.3235 0.2455,-0.5473 0.6037,-1.1112 0.3583,-0.5672 0.7696,-0.9188 v 0 q 0.9487,-0.7762 2.0599,-0.7762 1.1145,0 1.8575,0.8525 0.7397,0.8557 1.1211,2.2456 0.3815,1.3898 0.6104,2.7929 0.2288,1.4031 0.4411,2.8692 0.2156,1.4661 0.4445,2.1063 z m -2.8327,-8.4716 q -0.2986,-0.7463 -0.7563,-1.1676 -0.4578,-0.418 -1.1278,-0.418 -0.6733,0 -1.2969,0.6535 -0.627,0.6568 -0.9918,1.6353 v 0 q -0.6568,1.8177 -0.826,3.3568 v 0 q 1.5259,-0.1658 3.0683,-0.1658 1.5424,0 2.9753,0.09 v 0 q -0.06,-0.2289 -0.2288,-1.0814 -0.1659,-0.8558 -0.3417,-1.5059 -0.1758,-0.6468 -0.4743,-1.3965 z m 14.4953,7.3571 v 0 l 0.1393,-9.4634 q 0.2455,-0.2455 0.5175,-0.2455 0.2753,0 0.4279,0.093 v 0 q 0.1061,2.03 0.1061,3.3436 v 0 l -0.1194,7.0685 q 0,0.3052 0,0.5805 v 0 q -0.5207,0.335 -0.8558,0.335 v 0 l -0.1824,-0.03 q -0.1526,-0.076 -0.2388,-0.1161 -0.083,-0.036 -0.219,-0.2123 -0.1393,-0.1758 -0.1857,-0.2521 -0.043,-0.076 -0.2057,-0.335 -0.1592,-0.262 -0.2189,-0.3615 -0.063,-0.1 -0.8657,-1.3865 -0.7994,-1.2904 -1.015,-1.6121 -0.2123,-0.3218 -0.9056,-1.36 -0.6965,-1.0349 -1.0913,-1.5391 v 0 q -1.1775,-1.496 -2.1693,-2.4115 v 0 q 0.076,1.9969 0.076,4.2724 0,2.2754 -0.093,4.8561 v 0 q -0.1824,0.272 -1.0216,0.272 v 0 q 0,-8.6243 -0.06,-10.6244 v 0 q 0.2885,-0.272 0.5639,-0.272 0.2753,0 0.534,0.1526 v 0 q 0.398,0.2421 0.8856,0.7297 v 0 q 1.6187,1.6187 3.0616,3.6819 1.4429,2.0598 3.1346,4.8362 z m 15.6961,-3.4629 v 0 q -0.8524,0 -0.8524,-0.2919 v 0 q 0,-0.3351 1.0515,-0.5241 1.0548,-0.1924 2.1394,-0.1924 1.0814,0 1.5723,0.06 0.4876,0.063 0.6335,0.1692 0.1427,0.1061 0.1427,0.3051 v 0 q 0,2.7465 -1.3102,4.0468 -1.3136,1.2969 -3.7781,1.2969 -2.4679,0 -3.8643,-1.2074 -1.3965,-1.204 -1.3965,-3.3269 v 0 q 0,-2.9323 1.7547,-4.7566 1.758,-1.8244 4.3685,-1.8244 v 0 q 1.1444,0 2.166,0.4743 1.0216,0.4744 1.2505,1.2207 v 0 q -0.2123,0.1858 -0.4113,0.1858 -0.199,0 -0.481,-0.093 -0.2819,-0.093 -0.5705,-0.3516 -0.2919,-0.2588 -0.8856,-0.5274 -0.5971,-0.2654 -1.2539,-0.2654 v 0 q -2.03,0 -3.516,1.7315 -1.4893,1.7315 -1.4893,4.0832 v 0 q 0,1.8642 1.3666,2.9157 1.3666,1.0548 3.1976,1.0548 v 0 q 2.0897,0 2.9621,-1.297 v 0 q 0.8226,-1.1908 0.8226,-3.0383 v 0 q -0.1227,-0.1062 -0.3184,-0.1062 -0.1991,0 -0.4744,0.013 v 0 q -0.7032,0.03 -1.6187,0.1393 -0.9155,0.1062 -1.2074,0.1062 z m 17.0097,4.5774 v 0 q -0.2455,0.3384 -0.7032,0.3384 v 0 q -0.1228,0 -0.2455,-0.033 v 0 q -0.335,-0.7629 -0.4942,-2.1594 -0.1592,-1.3965 -0.2355,-1.8376 v 0 q -1.6652,-0.063 -3.3303,-0.063 -1.6618,0 -2.9754,0.1393 v 0 q -0.1393,0.6236 -0.2985,1.8675 -0.1592,1.2472 -0.2355,1.6717 v 0 q -0.5506,0.4445 -0.9918,0.1228 v 0 q 0.043,-0.3649 0.136,-1.161 0.093,-0.7928 0.1592,-1.35 0.07,-0.5573 0.209,-1.4131 0.136,-0.8524 0.2653,-1.4727 0.1294,-0.617 0.3583,-1.3865 0.2289,-0.7729 0.4743,-1.3235 0.2422,-0.5473 0.6037,-1.1112 0.3583,-0.5672 0.7696,-0.9188 v 0 q 0.9453,-0.7762 2.0598,-0.7762 1.1145,0 1.8542,0.8525 0.7431,0.8557 1.1245,2.2456 0.3815,1.3898 0.6103,2.7929 0.2289,1.4031 0.4412,2.8692 0.2156,1.4661 0.4445,2.1063 z m -2.8327,-8.4716 q -0.2986,-0.7463 -0.7563,-1.1676 -0.4578,-0.418 -1.1278,-0.418 -0.6734,0 -1.297,0.6535 -0.6269,0.6568 -0.9951,1.6353 v 0 q -0.6567,1.8177 -0.8226,3.3568 v 0 q 1.5258,-0.1658 3.0682,-0.1658 1.5425,0 2.9754,0.09 v 0 q -0.06,-0.2289 -0.2289,-1.0814 -0.1658,-0.8558 -0.3416,-1.5059 -0.1758,-0.6468 -0.4743,-1.3965 z m 14.4953,7.3571 v 0 l 0.1393,-9.4634 q 0.2422,-0.2455 0.5175,-0.2455 0.2753,0 0.4279,0.093 v 0 q 0.1061,2.03 0.1061,3.3436 v 0 l -0.1227,7.0685 q 0,0.3052 0,0.5805 v 0 q -0.5175,0.335 -0.8525,0.335 v 0 l -0.1824,-0.03 q -0.1559,-0.076 -0.2389,-0.1161 -0.083,-0.036 -0.2222,-0.2123 -0.136,-0.1758 -0.1824,-0.2521 -0.046,-0.076 -0.2057,-0.335 -0.1592,-0.262 -0.2222,-0.3615 -0.06,-0.1 -0.8624,-1.3865 -0.7994,-1.2904 -1.0151,-1.6121 -0.2122,-0.3218 -0.9088,-1.36 -0.6933,-1.0349 -1.0913,-1.5391 v 0 q -1.1742,-1.496 -2.166,-2.4115 v 0 q 0.076,1.9969 0.076,4.2724 0,2.2754 -0.093,4.8561 v 0 q -0.1825,0.272 -1.0217,0.272 v 0 q 0,-8.6243 -0.06,-10.6244 v 0 q 0.2886,-0.272 0.5639,-0.272 0.2753,0 0.5341,0.1526 v 0 q 0.398,0.2421 0.8856,0.7297 v 0 q 1.6187,1.6187 3.0616,3.6819 1.4396,2.0598 3.1346,4.8362 z m 10.5514,-3.4629 v 0 q -0.8558,0 -0.8558,-0.2919 v 0 q 0,-0.3351 1.0548,-0.5241 1.0515,-0.1924 2.1362,-0.1924 1.0847,0 1.5723,0.06 0.4876,0.063 0.6335,0.1692 0.146,0.1061 0.146,0.3051 v 0 q 0,2.7465 -1.3136,4.0468 -1.3135,1.2969 -3.778,1.2969 -2.4646,0 -3.8611,-1.2074 -1.3997,-1.204 -1.3997,-3.3269 v 0 q 0,-2.9323 1.758,-4.7566 1.7547,-1.8244 4.3652,-1.8244 v 0 q 1.1443,0 2.166,0.4743 1.0249,0.4744 1.2538,1.2207 v 0 q -0.2156,0.1858 -0.4113,0.1858 -0.199,0 -0.481,-0.093 -0.2852,-0.093 -0.5738,-0.3516 -0.2886,-0.2588 -0.8856,-0.5274 -0.5938,-0.2654 -1.2506,-0.2654 v 0 q -2.03,0 -3.5193,1.7315 -1.4894,1.7315 -1.4894,4.0832 v 0 q 0,1.8642 1.3667,2.9157 1.3666,1.0548 3.1976,1.0548 v 0 q 2.093,0 2.9621,-1.297 v 0 q 0.8259,-1.1908 0.8259,-3.0383 v 0 q -0.1227,-0.1062 -0.3218,-0.1062 -0.199,0 -0.4743,0.013 v 0 q -0.6999,0.03 -1.6187,0.1393 -0.9155,0.1062 -1.2041,0.1062 z m 17.0064,4.5774 v 0 q -0.2422,0.3384 -0.7032,0.3384 v 0 q -0.1195,0 -0.2422,-0.033 v 0 q -0.335,-0.7629 -0.4975,-2.1594 -0.1593,-1.3965 -0.2355,-1.8376 v 0 q -1.6652,-0.063 -3.327,-0.063 -1.6652,0 -2.9787,0.1393 v 0 q -0.136,0.6236 -0.2952,1.8675 -0.1625,1.2472 -0.2388,1.6717 v 0 q -0.5473,0.4445 -0.9918,0.1228 v 0 q 0.046,-0.3649 0.136,-1.161 0.093,-0.7928 0.1625,-1.35 0.07,-0.5573 0.2057,-1.4131 0.136,-0.8524 0.2653,-1.4727 0.1327,-0.617 0.3616,-1.3865 0.2289,-0.7729 0.471,-1.3235 0.2455,-0.5473 0.6037,-1.1112 0.3582,-0.5672 0.7695,-0.9188 v 0 q 0.9487,-0.7762 2.0632,-0.7762 1.1145,0 1.8542,0.8525 0.7397,0.8557 1.1212,2.2456 0.3814,1.3898 0.6103,2.7929 0.2289,1.4031 0.4445,2.8692 0.2123,1.4661 0.4412,2.1063 z m -2.8328,-8.4716 q -0.2952,-0.7463 -0.7529,-1.1676 -0.4578,-0.418 -1.1311,-0.418 -0.6701,0 -1.297,0.6535 -0.6269,0.6568 -0.9918,1.6353 v 0 q -0.6567,1.8177 -0.8259,3.3568 v 0 q 1.5258,-0.1658 3.0682,-0.1658 1.5424,0 2.9787,0.09 v 0 q -0.063,-0.2289 -0.2289,-1.0814 -0.1691,-0.8558 -0.3449,-1.5059 -0.1758,-0.6468 -0.4744,-1.3965 z"
       style="fill:#b92d2d;fill-opacity:1;stroke:none;stroke-width:0.331701;stroke-opacity:1" />
    <path
       id="path5219"
       d="m 114.61452,845.29927 c -2.8469,-0.1438 -5.6939,-0.2703 -8.5408,-0.3738 -0.1783,-1.7197 -1.6277,-3.0655 -3.3991,-3.0655 -1.6967,0 -3.1057,1.2365 -3.3703,2.8584 -1.3228,-0.034 -2.6514,-0.063 -3.9742,-0.086 -3.5486,-0.075 -7.0972,-0.115 -10.6459,-0.1438 0.811,-0.2473 1.6104,-0.5233 2.4041,-0.8339 3.5429,-1.3976 6.896,-3.5831 9.3921,-6.6256 2.5536,-2.9965 4.1122,-6.76942 4.7851,-10.61136 0.3393,-1.92672 0.4371,-3.88219 0.3854,-5.82616 -0.069,-1.96123 -0.2704,-3.84194 -0.742,-5.83767 l -0.23,-0.96623 -0.995,0.0345 c -1.4954,0.046 -2.893,0.2243 -4.2848,0.48311 -0.3566,-1.6679 -0.857,-3.30705 -1.4551,-4.89444 -0.788,-2.06475 -1.7024,-4.00298 -2.939,-5.94119 l -0.5348,-0.83971 -0.926,0.35084 c -0.765,0.29332 -1.4954,0.61539 -2.2028,0.95473 -0.1208,-0.24731 -0.2358,-0.50037 -0.3681,-0.74768 -1.2481,-2.38683 -2.7779,-4.60687 -4.4631,-6.68888 -1.7139,-2.08201 -3.5313,-3.98572 -5.6939,-5.7514 l -0.7707,-0.6269 -0.7706,0.6269 c -2.1626,1.76568 -3.98,3.66364 -5.6939,5.7514 -1.6852,2.08201 -3.215,4.30205 -4.4631,6.69463 -0.1265,0.24731 -0.2416,0.50037 -0.3681,0.74768 -0.7132,-0.33933 -1.4378,-0.66141 -2.2085,-0.95473 l -0.926,-0.35084 -0.5349,0.83971 c -1.2365,1.94397 -2.1453,3.88219 -2.9389,5.94119 -0.5982,1.59314 -1.0928,3.22654 -1.4551,4.89444 -1.3861,-0.26456 -2.7895,-0.43711 -4.2848,-0.48312 l -0.995,-0.0345 -0.2301,0.96623 c -0.4774,1.99574 -0.6786,3.87645 -0.7419,5.83767 -0.052,1.94397 0.046,3.89945 0.3853,5.82616 0.6729,3.84194 2.2316,7.61486 4.7852,10.61132 2.4961,3.0425 5.8492,5.228 9.392,6.6256 0.7937,0.3106 1.5989,0.5867 2.4099,0.834 -3.5487,0.029 -7.103,0.069 -10.6516,0.1438 -1.3229,0.023 -2.6514,0.052 -3.9742,0.086 -0.2646,-1.6219 -1.6737,-2.8585 -3.3704,-2.8585 -1.7656,0 -3.2207,1.3458 -3.399,3.0655 -2.847,0.1035 -5.6939,0.2243 -8.5409,0.3681 2.847,0.1438 5.6939,0.2703 8.5466,0.3681 0.1956,1.7024 1.6392,3.0252 3.3933,3.0252 1.6852,0 3.0828,-1.2193 3.3646,-2.8239 1.3286,0.034 2.6571,0.063 3.98,0.086 3.5141,0.075 7.0282,0.115 10.5423,0.1438 -0.6729,0.322 -1.3171,0.7074 -1.9267,1.1618 -1.6507,1.202 -2.847,2.9677 -3.6119,4.8254 -0.3624,0.9432 -0.6442,1.9094 -0.8167,2.8929 -0.1783,1.0008 -0.2588,1.9382 -0.2243,3.0425 l 0.029,1.0065 0.9835,0.1553 c 1.0927,0.1725 2.0302,0.2186 3.0482,0.1668 0.995,-0.035 1.9957,-0.1726 2.9735,-0.4084 1.0582,-0.276 2.0992,-0.6844 3.0655,-1.2365 0.2185,1.087 0.5924,2.1453 1.0812,3.123 0.4716,0.8915 1.0123,1.7427 1.6392,2.5191 0.6384,0.7937 1.2883,1.4724 2.1452,2.174 l 0.7765,0.6384 0.7649,-0.6384 c 0.8512,-0.7074 1.5011,-1.3861 2.1338,-2.1855 0.6326,-0.7707 1.179,-1.6161 1.6506,-2.5076 0.4889,-0.9777 0.8685,-2.036 1.0813,-3.123 0.9605,0.5521 2.0072,0.9662 3.0655,1.2423 0.9777,0.2358 1.9785,0.3738 2.9735,0.4083 1.0122,0.046 1.9554,0 3.0482,-0.1668 l 0.9835,-0.1552 0.029,-1.0065 c 0.034,-1.1043 -0.046,-2.0418 -0.2243,-3.0425 -0.1725,-0.9835 -0.4544,-1.9497 -0.8167,-2.893 -0.7592,-1.8577 -1.9612,-3.6234 -3.6119,-4.8254 -0.6096,-0.4544 -1.2595,-0.8397 -1.9324,-1.1675 3.238,-0.029 6.476,-0.069 9.7141,-0.1381 1.3285,-0.023 2.6514,-0.052 3.9799,-0.086 0.2819,1.5989 1.6794,2.8182 3.3646,2.8182 1.7542,0 3.1978,-1.3228 3.3933,-3.0252 2.8585,-0.098 5.7054,-0.2186 8.5581,-0.3681 z m -20.1184,-16.47774 c 1.4839,-3.81318 1.8175,-8.0117 1.3113,-12.04918 0.9548,-0.17254 1.921,-0.28757 2.8585,-0.35659 0.2703,1.37459 0.4428,2.84695 0.5004,4.26754 0.075,1.79443 -0.023,3.58887 -0.2819,5.3488 -0.4888,3.53711 -1.8347,6.91893 -3.9627,9.76587 -2.128,2.8527 -5.0612,5.113 -8.3452,6.7176 -1.5299,0.7765 -3.1346,1.4149 -4.7795,1.9613 -0.8224,0 -1.6506,-0.012 -2.4731,-0.012 2.7089,-1.3976 5.2856,-3.0885 7.6264,-5.1073 3.2553,-2.8009 6.0159,-6.37828 7.5458,-10.53654 z m -1.8692,-0.65566 c -1.248,3.85919 -3.5831,7.36754 -6.5278,10.2892 -2.2431,2.2833 -4.8139,4.2503 -7.5458,6.016 -0.2819,0 -0.5694,0 -0.8513,0 3.2151,-3.1115 6.085,-6.6084 8.3741,-10.51931 2.6744,-4.54935 4.4631,-9.77162 4.6126,-15.17793 0.012,-0.19555 0,-0.3911 0.01,-0.58664 0.9145,-0.34509 1.8462,-0.63841 2.7952,-0.88571 0.5348,3.63488 0.276,7.37328 -0.8627,10.87013 z m -16.5813,3.12301 c -0.6384,-2.55363 -1.6851,-5.02672 -3.2207,-7.22376 0.1725,-0.77068 0.3796,-1.52987 0.6326,-2.27755 0.6327,-1.86345 1.5126,-3.62913 2.5881,-5.27403 1.0756,1.63914 1.9555,3.41058 2.5882,5.27403 0.253,0.74768 0.4601,1.50687 0.6326,2.27755 -1.5356,2.19704 -2.5823,4.67013 -3.2208,7.22376 z m 0.069,13.16489 c -0.023,0 -0.046,0 -0.069,0 -0.023,0 -0.046,0 -0.069,0 -0.057,-1.6794 -0.046,-3.3588 0.069,-5.0209 0.1151,1.6621 0.1323,3.3415 0.069,5.0209 z m -4.8196,-10.3007 c 0.7937,3.6291 2.151,7.08 3.8822,10.3065 -0.1611,0 -0.3279,0 -0.4889,0 -2.9447,-3.4393 -5.5846,-7.1145 -7.5803,-11.11169 -2.3006,-4.47459 -3.6924,-9.39204 -3.7212,-14.33248 2.8757,1.33432 5.4351,3.27829 7.4423,5.71113 -0.4141,3.16327 -0.2013,6.3783 0.4659,9.42654 z m 1.225,-0.2128 c -0.3508,-2.35807 -0.4083,-4.7449 -0.161,-7.07997 1.4838,2.38683 2.4961,5.08998 3.054,7.91392 -0.3566,3.25525 -0.2013,6.51055 0.3393,9.68535 -0.115,0 -0.2243,0 -0.3393,0 -1.3459,-3.4221 -2.4099,-6.9362 -2.893,-10.5193 z m 4.1583,0.83395 c 0.5579,-2.81818 1.5701,-5.52709 3.054,-7.91392 0.2473,2.33507 0.1898,4.7219 -0.1611,7.07997 -0.4831,3.5831 -1.5471,7.0972 -2.8929,10.5193 -0.1151,0 -0.2243,0 -0.3394,0 0.5407,-3.1748 0.696,-6.4358 0.3394,-9.68535 z m 4.118,-0.62115 c 0.6729,-3.04824 0.8799,-6.26902 0.4658,-9.42654 2.0073,-2.43859 4.5609,-4.37681 7.4366,-5.71113 -0.029,4.94044 -1.4206,9.85789 -3.7212,14.33248 -1.9957,3.99719 -4.6356,7.67239 -7.5745,11.11169 -0.1611,0 -0.3279,0 -0.4889,0 1.7254,-3.2208 3.0827,-6.6774 3.8822,-10.3065 z m 8.6386,-28.38314 c 0.8339,1.41485 1.5874,2.97922 2.197,4.53785 0.5809,1.48386 1.041,3.00798 1.3976,4.54935 -0.8109,0.21856 -1.6104,0.46587 -2.4041,0.74768 -0.2358,-3.21502 -1.0295,-6.38404 -2.243,-9.36902 0.3508,-0.16679 0.7016,-0.32208 1.0525,-0.46586 z m -0.8397,10.65734 c -0.086,0.0402 -0.1726,0.0748 -0.2588,0.11503 -2.8412,1.33432 -5.4869,3.22078 -7.5689,5.60186 -0.081,-0.31633 -0.1495,-0.63266 -0.2415,-0.94899 -0.6557,-2.34656 -1.7255,-4.56085 -3.0713,-6.59109 0.811,-1.0065 1.6909,-1.95548 2.6514,-2.82394 1.4954,-1.36883 3.123,-2.61114 4.8599,-3.6924 0.4371,-0.27031 0.8858,-0.54063 1.3401,-0.79369 1.2366,2.90445 2.0245,5.98721 2.2891,9.13322 z m -21.3607,-12.10094 c 1.2193,-2.20279 2.6514,-4.30205 4.2618,-6.24602 1.3803,-1.66791 2.9332,-3.2668 4.5493,-4.64713 1.6104,1.38609 3.1691,2.97922 4.5494,4.64713 1.6161,1.94972 3.0425,4.04323 4.2618,6.25177 0.1323,0.23581 0.2473,0.47161 0.3681,0.70742 -0.5349,0.30482 -1.064,0.6154 -1.5874,0.94898 -1.8462,1.18479 -3.6061,2.51336 -5.1878,4.04898 -0.8512,0.82246 -1.6564,1.70817 -2.4041,2.64565 -0.7476,-0.93173 -1.5471,-1.81744 -2.404,-2.64565 -1.5817,-1.53562 -3.3416,-2.86419 -5.1878,-4.04898 -0.5234,-0.33358 -1.0525,-0.64416 -1.5874,-0.94898 0.1208,-0.24156 0.2358,-0.48312 0.3681,-0.71317 z m -1.4436,2.96772 c 0.4544,0.25306 0.9087,0.52338 1.3458,0.79369 1.7312,1.07551 3.3588,2.31782 4.86,3.6924 0.9604,0.86846 1.8404,1.82319 2.6514,2.82394 -1.3459,2.03024 -2.4214,4.24453 -3.0713,6.59109 -0.092,0.31058 -0.1668,0.63266 -0.2415,0.94899 -2.0878,-2.38108 -4.7277,-4.26754 -7.5689,-5.60186 -0.086,-0.0402 -0.1783,-0.0748 -0.2645,-0.11503 0.253,-3.14601 1.0467,-6.22877 2.289,-9.13322 z m -5.3258,3.01373 c 0.6097,-1.56437 1.3631,-3.123 2.1971,-4.53785 0.3508,0.14953 0.7016,0.30482 1.0582,0.46586 -1.2193,2.98498 -2.0072,6.154 -2.243,9.36902 -0.7937,-0.28181 -1.5989,-0.52912 -2.4099,-0.74768 0.3509,-1.54712 0.8167,-3.06549 1.3976,-4.54935 z m -1.8634,6.9822 c 0.9489,0.25306 1.8807,0.54638 2.8009,0.89147 0.01,0.19554 -0.01,0.39109 0.01,0.58664 0.1553,5.40631 1.944,10.62858 4.6126,15.17793 2.2891,3.91095 5.1648,7.40775 8.374,10.51935 -0.2818,0 -0.5693,0.01 -0.8512,0.01 -2.7319,-1.7597 -5.3085,-3.7267 -7.5458,-6.0157 -2.9447,-2.92171 -5.2798,-6.43006 -6.5279,-10.28925 -1.1445,-3.49685 -1.4033,-7.23525 -0.8684,-10.87589 z m 6.9131,25.23709 c -3.284,-1.6046 -6.2172,-3.8649 -8.3452,-6.71759 -2.128,-2.84695 -3.4796,-6.22877 -3.9627,-9.76588 -0.2589,-1.76567 -0.3509,-3.56011 -0.2819,-5.3488 0.058,-1.42634 0.2301,-2.8987 0.5004,-4.26753 0.9375,0.0632 1.9037,0.18404 2.8585,0.35659 -0.5062,4.03747 -0.1668,8.23599 1.3113,12.04917 1.5356,4.15826 4.2905,7.73564 7.5458,10.54234 2.3408,2.0187 4.9174,3.7039 7.6263,5.1072 -0.8224,0 -1.6506,0 -2.473,0.012 -1.645,-0.5521 -3.2496,-1.1905 -4.7795,-1.967 z m 5.136,12.4115 c -0.011,0.1208 -0.011,0.2359 -0.017,0.3566 -1.041,0.6384 -2.1912,1.087 -3.4105,1.3113 -0.4199,0.052 -0.8282,0.1438 -1.2423,0.1898 -0.4199,0.023 -0.8397,0.092 -1.2653,0.081 -0.4717,0.017 -0.9605,0 -1.4379,-0.046 0.023,-0.4773 0.075,-0.9719 0.1553,-1.4378 0.04,-0.4256 0.161,-0.8282 0.2416,-1.2423 0.098,-0.4084 0.2473,-0.7995 0.3508,-1.2078 0.5176,-1.5989 1.4321,-3.0137 2.6399,-4.1583 0.2645,-0.3278 0.6499,-0.5233 0.972,-0.7937 l 0.5061,-0.3795 0.5636,-0.2991 c 0.3854,-0.1898 0.7419,-0.4429 1.1503,-0.5924 l 1.2423,-0.4371 c 0.1495,-0.069 0.3106,-0.1093 0.4716,-0.1553 1.2998,0 2.6054,0.017 3.9052,0.017 -0.3681,0.3106 -0.7534,0.6442 -1.1273,1.0065 -0.3105,0.3508 -0.6096,0.7189 -0.9144,1.087 -0.2991,0.3681 -0.6327,0.7247 -0.8627,1.1503 -1.0756,1.6046 -1.76,3.5313 -1.921,5.5501 z m 2.0763,-1.8519 0.1438,-0.6212 c 0.1093,-0.4141 0.1553,-0.8512 0.3105,-1.2595 l 0.4889,-1.2251 c 0.1265,-0.4313 0.3739,-0.8052 0.5867,-1.202 0.2185,-0.3968 0.4371,-0.7879 0.6499,-1.1963 0.3048,-0.4486 0.6154,-0.926 0.9605,-1.4378 0.057,0 0.115,0 0.1782,0 0.069,0 0.1438,0 0.2128,0 -0.1667,0.6614 -0.345,1.2595 -0.4888,1.8289 l -0.4716,1.2768 c -0.1553,0.4199 -0.2819,0.8512 -0.5177,1.2308 l -0.6039,1.1733 c -0.2013,0.3853 -0.5003,0.7074 -0.7419,1.064 l -0.3738,0.5176 -0.3739,0.3796 z m 6.1712,6.6141 c -0.2358,0.3451 -0.4371,0.7189 -0.6786,1.064 -0.2588,0.3336 -0.4831,0.6902 -0.7707,1.0065 -0.2991,0.3623 -0.6384,0.7247 -0.9835,1.0525 -0.3451,-0.3336 -0.6844,-0.6959 -0.9777,-1.064 -0.2934,-0.3106 -0.5177,-0.6672 -0.7765,-1.0007 -0.2473,-0.3394 -0.4428,-0.7132 -0.6786,-1.0583 -0.6384,-1.064 -1.0583,-2.2315 -1.2596,-3.4393 0.086,-0.08 0.1725,-0.1553 0.2531,-0.2416 1.4148,-1.4493 2.4213,-3.2323 2.9159,-5.0957 0.1726,-0.4544 0.2186,-0.9318 0.2991,-1.4034 0.075,-0.4716 0.1553,-0.9374 0.2185,-1.4033 0.01,-0.075 0.01,-0.1495 0.01,-0.2243 0,0.075 0,0.1495 0,0.2243 0.063,0.4659 0.1381,0.9317 0.2186,1.4033 0.081,0.4716 0.1265,0.949 0.2991,1.4034 0.4946,1.8634 1.4953,3.6464 2.9159,5.0957 0.081,0.086 0.1726,0.161 0.2588,0.2473 -0.207,1.2021 -0.6269,2.3638 -1.2653,3.4336 z m 0.9663,-6.4588 -0.3739,-0.5176 c -0.2415,-0.3566 -0.5406,-0.6787 -0.7419,-1.0641 l -0.6039,-1.1732 c -0.2358,-0.3796 -0.3623,-0.811 -0.5176,-1.2308 l -0.4716,-1.2768 c -0.1496,-0.5694 -0.3221,-1.1733 -0.4947,-1.8347 0.1323,0 0.2589,0 0.3911,0 0.3509,0.5118 0.6615,0.995 0.9663,1.4436 l 0.6499,1.1963 c 0.2128,0.3968 0.4543,0.7706 0.5866,1.202 l 0.4889,1.225 c 0.1553,0.4084 0.207,0.8455 0.3163,1.2596 l 0.1438,0.6211 0.04,0.5349 z m 6.4013,-4.4573 c 1.2078,1.1445 2.1165,2.5593 2.6399,4.1582 0.1035,0.4084 0.253,0.7995 0.3508,1.2078 0.081,0.4141 0.1955,0.8224 0.2416,1.2423 0.081,0.4659 0.1322,0.9605 0.1553,1.4379 -0.4774,0.04 -0.9663,0.063 -1.4379,0.046 -0.4256,0.011 -0.8397,-0.052 -1.2653,-0.081 -0.4199,-0.046 -0.8282,-0.1381 -1.2423,-0.1898 -1.2193,-0.2243 -2.3753,-0.673 -3.4163,-1.3114 -0.01,-0.1207 -0.01,-0.2358 -0.017,-0.3565 -0.1553,-2.0188 -0.8397,-3.9513 -1.921,-5.5501 -0.2301,-0.4256 -0.5579,-0.7822 -0.8627,-1.1503 -0.3048,-0.3681 -0.6039,-0.7362 -0.9145,-1.087 -0.3738,-0.3624 -0.7592,-0.7017 -1.133,-1.0123 1.2998,0 2.5996,-0.012 3.8994,-0.017 0.1611,0.046 0.3279,0.086 0.4832,0.1553 l 1.2423,0.4371 c 0.4083,0.1496 0.7707,0.4026 1.1502,0.5924 l 0.5637,0.2991 0.5061,0.3796 c 0.3336,0.276 0.7132,0.4658 0.9777,0.7994 z"
       style="fill:#b92d2d;fill-opacity:1;stroke:none;stroke-width:0.0575139;stroke-opacity:1" />
  </g>
</svg>
